<svg xmlns="http://www.w3.org/2000/svg" viewBox="0 0 192 192" role="img" aria-label="PooP.it">
  <defs>
    <linearGradient id="bg" x1="24" y1="12" x2="168" y2="180" gradientUnits="userSpaceOnUse">
      <stop stop-color="#D4A574"/>
      <stop offset="0.55" stop-color="#B8956A"/>
      <stop offset="1" stop-color="#8B4513"/>
    </linearGradient>
    <linearGradient id="seat" x1="52" y1="54" x2="140" y2="154" gradientUnits="userSpaceOnUse">
      <stop stop-color="#ffffff"/>
      <stop offset="1" stop-color="#FFF0D9"/>
    </linearGradient>
  </defs>
  <rect width="192" height="192" rx="40" fill="url(#bg)"/>
  <circle cx="150" cy="40" r="16" fill="#FFD700"/>
  <path d="M58 65c0-12 10-22 22-22h32c12 0 22 10 22 22v9H58v-9z" fill="#FFF8F0"/>
  <path d="M48 77h96v26c0 27-21 49-48 49S48 130 48 103V77z" fill="url(#seat)"/>
  <ellipse cx="96" cy="94" rx="28" ry="20" fill="#8B4513" opacity="0.22"/>
  <path d="M70 149h52l-7 18H77l-7-18z" fill="#FFF8F0"/>
  <path d="M62 63h68" stroke="#6B340F" stroke-width="8" stroke-linecap="round"/>
  <path d="M84 107c8 8 18 8 26 0" stroke="#6B340F" stroke-width="7" stroke-linecap="round" fill="none"/>
  <text x="96" y="178" text-anchor="middle" font-family="Arial, Helvetica, sans-serif" font-size="23" font-weight="900" fill="#FFF8F0">P.it</text>
</svg>
